<svg xmlns="http://www.w3.org/2000/svg" xmlns:xlink="http://www.w3.org/1999/xlink" version="1.1" width="256" height="256" viewBox="0 0 256 256" xml:space="preserve">

<defs>
</defs>
<g style="stroke: none; stroke-width: 0; stroke-dasharray: none; stroke-linecap: butt; stroke-linejoin: miter; stroke-miterlimit: 10; fill: none; fill-rule: nonzero; opacity: 1;" transform="translate(1.4065934065934016 1.4065934065934016) scale(2.81 2.81)" >
	<path d="M 90 90 H 45 C 20.147 90 0 69.853 0 45 v 0 C 0 20.147 20.147 0 45 0 h 0 c 24.853 0 45 20.147 45 45 V 90 z" style="stroke: none; stroke-width: 1; stroke-dasharray: none; stroke-linecap: butt; stroke-linejoin: miter; stroke-miterlimit: 10; fill: rgb(93,198,82); fill-rule: nonzero; opacity: 1;" transform=" matrix(1 0 0 1 0 0) " stroke-linecap="round" />
	<path d="M 61.919 57.062 c -0.828 0 -1.5 -0.672 -1.5 -1.5 V 42.13 c 0 -1.208 -0.983 -2.192 -2.191 -2.192 h -3.245 c -1.208 0 -2.191 0.983 -2.191 2.192 v 13.431 c 0 0.828 -0.672 1.5 -1.5 1.5 s -1.5 -0.672 -1.5 -1.5 V 42.13 c 0 -2.863 2.329 -5.192 5.191 -5.192 h 3.245 c 2.862 0 5.191 2.329 5.191 5.192 v 13.431 C 63.419 56.39 62.747 57.062 61.919 57.062 z" style="stroke: none; stroke-width: 1; stroke-dasharray: none; stroke-linecap: butt; stroke-linejoin: miter; stroke-miterlimit: 10; fill: rgb(255,255,255); fill-rule: nonzero; opacity: 1;" transform=" matrix(1 0 0 1 0 0) " stroke-linecap="round" />
	<path d="M 61.919 48.5 H 51.291 c -0.828 0 -1.5 -0.672 -1.5 -1.5 s 0.672 -1.5 1.5 -1.5 h 10.628 c 0.828 0 1.5 0.672 1.5 1.5 S 62.747 48.5 61.919 48.5 z" style="stroke: none; stroke-width: 1; stroke-dasharray: none; stroke-linecap: butt; stroke-linejoin: miter; stroke-miterlimit: 10; fill: rgb(255,255,255); fill-rule: nonzero; opacity: 1;" transform=" matrix(1 0 0 1 0 0) " stroke-linecap="round" />
	<path d="M 79.721 39.938 H 68.919 c -0.828 0 -1.5 -0.671 -1.5 -1.5 s 0.672 -1.5 1.5 -1.5 h 10.802 c 0.828 0 1.5 0.671 1.5 1.5 S 80.549 39.938 79.721 39.938 z" style="stroke: none; stroke-width: 1; stroke-dasharray: none; stroke-linecap: butt; stroke-linejoin: miter; stroke-miterlimit: 10; fill: rgb(255,255,255); fill-rule: nonzero; opacity: 1;" transform=" matrix(1 0 0 1 0 0) " stroke-linecap="round" />
	<path d="M 74.32 57.062 c -0.828 0 -1.5 -0.672 -1.5 -1.5 V 38.438 c 0 -0.829 0.672 -1.5 1.5 -1.5 s 1.5 0.671 1.5 1.5 v 17.123 C 75.82 56.39 75.148 57.062 74.32 57.062 z" style="stroke: none; stroke-width: 1; stroke-dasharray: none; stroke-linecap: butt; stroke-linejoin: miter; stroke-miterlimit: 10; fill: rgb(255,255,255); fill-rule: nonzero; opacity: 1;" transform=" matrix(1 0 0 1 0 0) " stroke-linecap="round" />
	<path d="M 43.291 48.303 H 32.907 c -0.829 0 -1.5 -0.672 -1.5 -1.5 c 0 -0.829 0.671 -1.5 1.5 -1.5 h 10.384 c 0.829 0 1.5 0.671 1.5 1.5 C 44.791 47.631 44.12 48.303 43.291 48.303 z" style="stroke: none; stroke-width: 1; stroke-dasharray: none; stroke-linecap: butt; stroke-linejoin: miter; stroke-miterlimit: 10; fill: rgb(255,255,255); fill-rule: nonzero; opacity: 1;" transform=" matrix(1 0 0 1 0 0) " stroke-linecap="round" />
	<path d="M 32.907 57.062 c -0.829 0 -1.5 -0.672 -1.5 -1.5 V 38.438 c 0 -0.829 0.671 -1.5 1.5 -1.5 s 1.5 0.671 1.5 1.5 v 17.123 C 34.407 56.39 33.736 57.062 32.907 57.062 z" style="stroke: none; stroke-width: 1; stroke-dasharray: none; stroke-linecap: butt; stroke-linejoin: miter; stroke-miterlimit: 10; fill: rgb(255,255,255); fill-rule: nonzero; opacity: 1;" transform=" matrix(1 0 0 1 0 0) " stroke-linecap="round" />
	<path d="M 43.291 57.062 c -0.829 0 -1.5 -0.672 -1.5 -1.5 V 38.438 c 0 -0.829 0.671 -1.5 1.5 -1.5 s 1.5 0.671 1.5 1.5 v 17.123 C 44.791 56.39 44.12 57.062 43.291 57.062 z" style="stroke: none; stroke-width: 1; stroke-dasharray: none; stroke-linecap: butt; stroke-linejoin: miter; stroke-miterlimit: 10; fill: rgb(255,255,255); fill-rule: nonzero; opacity: 1;" transform=" matrix(1 0 0 1 0 0) " stroke-linecap="round" />
	<path d="M 21.216 57.062 h -3.245 c -2.863 0 -5.192 -2.329 -5.192 -5.191 v -9.74 c 0 -2.863 2.329 -5.192 5.192 -5.192 h 3.245 c 2.863 0 5.191 2.329 5.191 5.192 c 0 0.829 -0.671 1.5 -1.5 1.5 s -1.5 -0.671 -1.5 -1.5 c 0 -1.208 -0.983 -2.192 -2.191 -2.192 h -3.245 c -1.208 0 -2.192 0.983 -2.192 2.192 v 9.74 c 0 1.208 0.983 2.191 2.192 2.191 h 3.245 c 1.208 0 2.191 -0.983 2.191 -2.191 c 0 -0.828 0.671 -1.5 1.5 -1.5 s 1.5 0.672 1.5 1.5 C 26.407 54.732 24.079 57.062 21.216 57.062 z" style="stroke: none; stroke-width: 1; stroke-dasharray: none; stroke-linecap: butt; stroke-linejoin: miter; stroke-miterlimit: 10; fill: rgb(255,255,255); fill-rule: nonzero; opacity: 1;" transform=" matrix(1 0 0 1 0 0) " stroke-linecap="round" />
</g>
</svg>